<?xml version="1.0" encoding="UTF-8" standalone="no"?>
<!-- Created with Inkscape (http://www.inkscape.org/) -->

<svg
   xmlns:dc="http://purl.org/dc/elements/1.1/"
   xmlns:cc="http://creativecommons.org/ns#"
   xmlns:rdf="http://www.w3.org/1999/02/22-rdf-syntax-ns#"
   xmlns:svg="http://www.w3.org/2000/svg"
   xmlns="http://www.w3.org/2000/svg"
   xmlns:sodipodi="http://sodipodi.sourceforge.net/DTD/sodipodi-0.dtd"
   xmlns:inkscape="http://www.inkscape.org/namespaces/inkscape"
   width="744.09448819"
   height="1052.3622047"
   id="svg2"
   version="1.1"
   inkscape:version="0.48.4 r9939"
   sodipodi:docname="Rysunek.svg">
  <defs
     id="defs4" />
  <sodipodi:namedview
     id="base"
     pagecolor="#ffffff"
     bordercolor="#666666"
     borderopacity="1.0"
     inkscape:pageopacity="0.0"
     inkscape:pageshadow="2"
     inkscape:zoom="0.7"
     inkscape:cx="150.04839"
     inkscape:cy="536.96927"
     inkscape:document-units="px"
     inkscape:current-layer="layer1"
     showgrid="false"
     inkscape:window-width="1280"
     inkscape:window-height="1000"
     inkscape:window-x="0"
     inkscape:window-y="24"
     inkscape:window-maximized="1" />
  <metadata
     id="metadata7">
    <rdf:RDF>
      <cc:Work
         rdf:about="">
        <dc:format>image/svg+xml</dc:format>
        <dc:type
           rdf:resource="http://purl.org/dc/dcmitype/StillImage" />
        <dc:title></dc:title>
      </cc:Work>
    </rdf:RDF>
  </metadata>
  <g
     inkscape:label="Layer 1"
     inkscape:groupmode="layer"
     id="layer1">
    <g
       id="g3139"
       transform="matrix(0.31864859,0,0,0.31864859,134.42575,0.31061098)">
      <path
         style="fill:#fbfbfb"
         d="m -209.42857,738.07646 0,-561.5 998,0 997.99997,0 0,561.5 0,561.50004 -997.99997,0 -998,0 0,-561.50004 z M 1285.0714,1244.6125 c 14.7069,-2.9501 25.5307,-11.5911 32.2803,-25.7704 l 3.6965,-7.7656 0.7625,-43.5 c 0.4193,-23.925 0.6495,-240.82504 0.5115,-482.00004 l -0.2508,-438.5 -67.2721,-0.25705 -67.272,-0.25704 -0.8816,2.31857 c -0.4848,1.27522 -3.1862,14.66589 -6.003,29.75705 -2.8168,15.09116 -5.7551,30.81347 -6.5295,34.93847 -0.7745,4.125 -2.3635,12.9 -3.5311,19.5 -3.6729,20.76125 -4.9433,26.1495 -14.4997,61.5 -13.7935,51.0237 -16.9585,66.35257 -19.5116,94.5 -2.5038,27.60361 -0.03,87.78335 3.666,89.20183 0.7897,0.30306 3.5992,-1.29828 6.3557,-3.62263 11.7787,-9.93195 20.8445,-12.21766 30.5443,-7.70096 7.1307,3.32038 11.5663,7.55328 14.9847,14.29982 2.6817,5.29272 2.9499,6.73095 2.9499,15.82194 0,8.78297 -0.3297,10.70359 -2.709,15.78122 -3.6027,7.68868 -12.6101,17.01487 -19.6494,20.34501 -10.4748,4.95536 -24.9691,3.32975 -36.6416,-4.10957 -5.8794,-3.74718 -15.7489,-14.11949 -18.4068,-19.34472 -3.9748,-7.81393 -7.9499,-23.79417 -12.4802,-50.17194 -4.7691,-27.76788 -5.8696,-42.52634 -5.3486,-71.72988 0.4872,-27.31094 1.6932,-40.59228 6.2446,-68.77012 3.3693,-20.85907 6.2713,-39.2226 8.0595,-51 0.8352,-5.5 1.9393,-12.7 2.4537,-16 0.5144,-3.3 1.6191,-11.175 2.455,-17.5 5.9428,-44.97082 7.5532,-64.24654 6.3724,-76.27642 -0.5519,-5.62297 -1.5313,-10.74727 -2.1765,-11.38734 -1.5063,-1.49432 -140.24817,-4.16114 -141.68587,-2.72341 -0.5867,0.5867 -1.0456,171.06586 -1.215,451.41495 -0.2284,378.00936 -0.053,451.35696 1.0932,455.97226 3.1632,12.7413 14.9729,31.4516 25.51967,40.4309 7.2217,6.1485 15.8411,10.5421 33.1149,16.8798 12.9903,4.7662 21.2749,7.4684 43.5,14.1889 13.9262,4.211 59.6349,14.5568 70.6422,15.9892 3.2117,0.418 5.3841,0.2776 5.7867,-0.3738 0.6522,-1.0552 9.1576,-42.4578 11.9387,-58.115 4.1599,-23.4197 7.9868,-58.4983 10.7457,-98.5 1.6226,-23.5256 0.539,-75.7066 -2.004,-96.50004 -3.0661,-25.07122 -4.7717,-37.06605 -7.6073,-53.5 -4.1091,-23.81421 -13.6242,-70.29782 -16.12,-78.75 -0.7613,-2.57801 -2.1169,-2.19045 -8.0762,2.3089 -7.242,5.46777 -14.761,9.12537 -19.9649,9.71193 -8.9219,1.00562 -21.5271,-8.53284 -27.1608,-20.55276 -2.3184,-4.9464 -2.6797,-7.00013 -2.6773,-15.21807 0,-10.79637 1.0829,-13.62521 8.8315,-23.13745 6.236,-7.65539 14.7955,-11.86255 24.1345,-11.86255 23.4781,0 42.8459,15.81043 50.8376,41.5 11.0494,35.51861 32.4965,140.34429 38.6689,189.00004 8.2327,64.897 9.2563,112.5675 3.92,182.567 -1.225,16.0688 -0.4155,34.6643 1.6548,38.0141 0.9413,1.523 49.5143,0.6469 57.9499,-1.0451 z m 124.5,-23.6637 c 32.7561,-7.971 53.2954,-13.2206 62,-15.8464 29.315,-8.8432 70.0885,-28.0907 107.5,-50.7464 24.2715,-14.6983 27.5496,-16.7752 47.5,-30.0929 25.9553,-17.3264 29.3262,-19.8154 37.3367,-27.5691 12.5708,-12.1677 19.2145,-22.0293 24.6689,-36.6175 l 3.3651,-9 0.4241,-125.00004 c 0.2332,-68.75 0.095,-158.96289 -0.3084,-200.47308 l -0.7326,-75.47308 -3.4017,-3.40176 c -5.9164,-5.91641 -10.7268,-4.54611 -42.8521,12.20703 -21.5745,11.25095 -42.9858,23.48853 -52.0696,29.76022 -20.8204,14.37494 -41.2221,38.551 -54.3724,64.43143 -10.9586,21.56694 -20.5381,57.18041 -16.1159,59.91348 0.5182,0.32025 3.5466,1.06373 6.7299,1.65218 8.2521,1.5255 10.9138,3.22921 14.2956,9.15054 3.9394,6.8975 4.6068,11.9422 2.6109,19.73294 -2.4553,9.5842 -7.2877,17.69447 -15.5783,26.14537 -5.8695,5.98307 -8.4744,7.90735 -11.9811,8.85071 -8.896,2.3932 -16.9229,-0.9144 -23.6624,-9.75051 -4.8223,-6.32246 -5.7021,-12.4378 -5.071,-35.24547 0.6604,-23.86289 2.9325,-37.4215 10.3424,-61.71922 22.1445,-72.61304 91.3924,-150.65593 170.5332,-192.19208 7.5137,-3.94349 14.1659,-7.77801 14.7827,-8.52117 0.7274,-0.87653 1.022,-5.51688 0.8387,-13.20936 l -0.2827,-11.85817 -25,-1.19353 c -27.7339,-1.32404 -35.4968,-2.22567 -50.6615,-5.88419 -63.6114,-15.34633 -105.8756,-61.72593 -118.3939,-129.92228 -2.078,-11.32029 -3.1195,-48.53653 -1.5879,-56.73974 1.4786,-7.91963 5.6021,-15.88358 11.3021,-21.82856 11.5966,-12.09511 24.3275,-11.8391 35.8059,0.72004 7.1264,7.79741 9.4235,13.28619 9.3532,22.34826 -0.097,12.51461 -4.4441,19.09982 -19.3179,29.26492 l -6.5,4.44226 0.2586,4.89641 c 0.3202,6.06278 4.532,22.70742 7.9446,31.39641 11.8729,30.22999 39.126,52.64848 69.3808,57.07272 9.392,1.37342 48.9915,0.72045 64.0957,-1.05689 12.5498,-1.47678 15.9815,-2.8137 18.0089,-7.01583 3.2881,-6.81525 4.8849,-48.35586 5.5244,-143.72421 0.5149,-76.7704 0.4062,-87.29284 -0.9072,-87.79682 -0.8207,-0.31493 -22.3753,0.12915 -47.899,0.98686 -25.5237,0.8577 -59.2318,1.97968 -74.9068,2.49327 -15.675,0.5136 -58.875,1.45079 -96,2.08265 -37.125,0.63186 -78.075,1.44346 -91,1.80355 l -23.5,0.6547 -0.7593,9 c -0.4177,4.95 -0.6427,219.15 -0.5,476 l 0.2593,467.00004 2.785,5.2859 c 3.8959,7.3942 8.8631,12.5565 14.9809,15.5695 11.405,5.6167 13.8555,5.5576 40.7341,-0.9831 z m -469.61297,-66.3294 c 3.6435,-1.3852 5.9082,-6.4745 5.7898,-13.0111 -0.1215,-6.7125 -8.0104,-54.2324 -13.7843,-83.0318 -4.9705,-24.7923 -12.9458,-54.1074 -30.8782,-113.50004 -13.0828,-43.33044 -31.1565,-112.37281 -45.4184,-173.5 -3.3268,-14.25889 -9.06,-43.67829 -11.4978,-59 -7.2928,-45.83525 -13.6854,-122.86323 -17.696,-213.22791 -1.2514,-28.1958 -0.9162,-30.53384 6.4542,-45.02168 9.2248,-18.13294 23.9733,-37.29023 34.0528,-44.23221 5.603,-3.85895 6.0176,-3.97597 13.5739,-3.83129 21.6868,0.41523 30.948,15.49499 25.4801,41.48838 -2.1011,9.98849 -5.6992,17.58379 -8.9078,18.8037 -2.6391,1.00337 -9.5564,0.11624 -14.8704,-1.90712 -10.2388,-3.8985 -16.7966,4.43272 -21.9831,27.92813 -1.9065,8.63649 -2.0986,12.68134 -2.1127,44.5 -0.016,35.66842 0.3525,41.01858 4.9926,72.5 2.9708,20.15672 8.4766,44.83075 13.5908,60.90759 5.5773,17.53255 39.3763,106.31451 49.1528,129.11271 1.7789,4.14823 4.0567,6.30606 8.1747,7.74413 1.65,0.5762 6.825,2.4377 11.5,4.13667 4.675,1.69896 9.2875,3.09124 10.25,3.09396 1.6626,0.005 1.75,-14.22846 1.75,-284.93604 0,-201.11411 -0.3144,-285.13532 -1.0688,-285.60156 -1.1516,-0.71173 -34.0938,-1.77299 -230.4312,-7.42358 -18.7,-0.53819 -51.62492,-1.50354 -73.16649,-2.14523 -21.54157,-0.6417 -39.87907,-0.89328 -40.75,-0.55907 -1.43827,0.55192 -1.58351,21.51159 -1.58351,228.51659 0,196.55398 0.19701,228.07244 1.43198,229.09737 1.53771,1.2762 26.0187,8.9939 28.65303,9.03296 1.74057,0.0258 11.31977,-12.37968 22.75959,-29.47466 29.03703,-43.39122 41.20454,-76.57107 47.30675,-129.00184 1.62628,-13.97321 1.61242,-60.12768 -0.0214,-71.19296 -2.54445,-17.23283 -7.05963,-28.94713 -13.59796,-35.27896 -3.39468,-3.28747 -4.14585,-3.53457 -14.13897,-4.65121 -12.34971,-1.37995 -13.69469,-2.2544 -18.00547,-11.70643 -2.42855,-5.32495 -2.86165,-7.67768 -3.16078,-17.17044 -0.29607,-9.39564 -0.0662,-11.51048 1.57639,-14.5 3.04422,-5.54067 7.3607,-7.49678 16.2536,-7.36567 12.44406,0.18347 17.75158,2.28407 25.47272,10.08157 11.96002,12.07828 30.62656,43.22304 36.52004,60.93298 2.15821,6.4854 2.22711,7.71117 1.61964,28.81235 -0.81889,28.44503 -4.90183,90.05522 -8.18697,123.53877 -6.01762,61.33404 -13.53146,97.21997 -30.465,145.5 -1.73614,4.95 -4.05659,11.65018 -5.15656,14.8893 -3.03183,8.92795 -16.12124,42.75325 -21.13276,54.6107 -6.35134,15.02753 -7.52438,17.52964 -22.32775,47.62523 -16.32664,33.19244 -24.75248,55.19179 -30.9739,80.87104 -3.23775,13.36398 -3.13587,17.9826 0.57736,26.17193 5.17834,11.42061 17.38609,21.53899 43.4964,36.05204 15.86818,8.82 53.39764,30.2812 60.26761,34.4638 3.44719,2.0988 6.51382,3.816 6.81474,3.816 0.30092,0 4.2305,2.2041 8.73239,4.8981 14.04319,8.4036 41.32706,24.3284 62.68526,36.5876 11.275,6.4716 25.675,14.7863 32,18.4771 11.6048,6.7717 31.4409,17.9874 42.5,24.0305 3.3,1.8032 8.925,4.9633 12.5,7.0223 10.6263,6.1205 26.6799,14.0956 31.2425,15.5208 5.1358,1.6041 10.7306,1.8045 14.1445,0.5065 z M -82.58863,1042.0095 c 5.78481,-3.1717 49.29619,-29.5727 66.66006,-40.4467 7.45654,-4.66955 29.78826,-18.08132 34.5,-20.71964 1.925,-1.07789 7.85509,-4.47595 13.17798,-7.55124 19.89036,-11.49164 43.0782,-23.83553 62.82202,-33.4429 28.1162,-13.68137 41.51696,-19.55204 71.4247,-31.29009 24.41477,-9.58219 33.38882,-15.48785 41.10367,-27.0496 2.41014,-3.61192 4.82272,-7.72611 5.36128,-9.14263 0.62301,-1.63864 1.094,-74.4305 1.29478,-200.10954 l 0.31557,-197.53404 -2.12994,-2.82333 c -3.08583,-4.09041 -8.62156,-3.80103 -18.51784,0.96801 -11.1322,5.36464 -22.66743,14.30623 -36.90054,28.60365 C 101.53647,556.70652 40.5246,658.90923 42.73779,692.07646 l 0.33364,5 9,0.5 c 4.95,0.275 10.03658,1.09122 11.30351,1.81382 3.9344,2.24401 6.18863,7.10475 6.19275,13.35327 0.004,6.58527 -2.15642,12.23336 -7.93601,20.74419 -5.14448,7.57557 -9.64108,11.27434 -19.63328,16.14973 -10.3816,5.06538 -17.70254,5.42044 -23.83118,1.15577 -6.36839,-4.4315 -7.45823,-6.67141 -8.78103,-18.04734 -3.92356,-33.74208 11.00265,-91.1248 42.18299,-162.16944 11.44692,-26.08189 44.94417,-92.08788 54.55496,-107.5 0.68594,-1.1 7.3011,-13.025 14.70035,-26.5 7.39925,-13.475 15.19113,-27.65 17.31529,-31.5 17.19282,-31.16169 39.77115,-75.55238 52.64295,-103.5 11.63316,-25.25824 23.48196,-58.52968 24.04021,-67.50492 l 0.24849,-3.99508 -19.5,0.26422 c -52.88959,0.71664 -135.61656,3.02453 -289,8.06245 l -20.5,0.67333 -0.63667,283 c -0.6912,307.2416 -0.20163,508.85644 1.24972,514.65944 0.50338,2.0126 2.27574,5.1158 3.93858,6.8958 l 3.02335,3.2365 8.55245,-0.6035 c 7.32404,-0.5169 9.50906,-1.1281 15.21251,-4.2552 z m 661.56035,-95.47964 c 1.90844,-1.67563 4.24501,-5.07623 5.19239,-7.5569 1.61601,-4.23148 1.67821,-15.12419 1.00609,-176.2034 l -0.71641,-171.6931 -2.49646,-4.27239 c -2.69393,-4.61035 -8.00759,-8.66692 -13.46767,-10.28154 -12.2646,-3.6268 -61.41655,-7.63171 -80.91823,-6.59323 -19.65977,1.04689 -35.69215,6.944 -50.18113,18.45786 -8.15823,6.48305 -12.90818,12.36608 -17.70816,21.9324 -3.23878,6.45485 -6.43421,16.92444 -5.58494,18.2986 0.26608,0.43052 3.77362,2.58833 7.79453,4.79514 17.01236,9.33693 23.03396,23.78264 13.9494,33.46436 -7.31813,7.79916 -21.58247,10.09397 -32.15395,5.17284 -6.96813,-3.24374 -17.24942,-13.63872 -19.61438,-19.83127 -1.4891,-3.89916 -1.67272,-6.71785 -1.19699,-18.37423 0.92418,-22.64441 7.17994,-39.29556 21.20523,-56.44259 5.7018,-6.97092 19.09682,-19.0447 26.77911,-24.13773 14.62427,-9.69527 39.52267,-20.80491 56.71128,-25.30451 25.05133,-6.55789 30.36223,-7.27393 62.46969,-8.42252 16.43561,-0.58795 28.39456,-1.42475 29,-2.02921 1.66159,-1.65892 1.97885,-19.32319 0.37013,-20.60833 -0.7369,-0.58867 -7.86482,-3.78141 -15.83982,-7.09497 C 500.80616,463.72658 456.9788,437.5052 426.2109,407.624 c -29.80781,-28.94879 -43.58269,-57.78787 -43.6238,-91.33078 -0.0142,-11.58082 0.21345,-13.23539 2.42011,-17.59002 6.81434,-13.44745 23.22978,-19.65508 36.00013,-13.61373 15.51922,7.34176 23.00644,21.56304 16.71336,31.74547 -2.25139,3.64282 -9.52341,7.87215 -18.64927,10.84622 -5.59405,1.82307 -5.70744,2.00747 -4.5127,7.33861 5.20345,23.21885 22.64555,46.12014 47.70808,62.6402 19.66104,12.95965 33.86432,18.32097 83.30462,31.44508 20.16609,5.35317 25.67331,6.22667 27.53298,4.367 2.84068,-2.84068 4.42357,-23.44676 5.51944,-71.8524 0.57954,-25.59875 0.91733,-64.76819 0.75065,-87.04319 l -0.30307,-40.5 -15,-0.63324 C 511.94571,231.2427 436.9497,230.08284 346.5954,230.07984 l -101.47604,-0.003 -0.78946,4.70419 c -0.4342,2.5873 -0.66998,145.15134 -0.52396,316.80898 l 0.26549,312.10479 5.55879,5.34178 c 4.34561,4.17596 7.07368,5.8421 12.5,7.63422 6.8065,2.24795 7.66897,2.28725 44.44121,2.02536 43.44646,-0.30942 54.95499,0.65408 83,6.94878 35.05368,7.86781 83.93199,25.03069 123.32303,43.30303 4.30267,1.99588 7.9645,3.62887 8.13741,3.62887 0.1729,0 5.03865,2.22267 10.81278,4.93926 23.19756,10.91391 25.92583,11.80919 36.44198,11.95838 6.68529,0.0948 7.47005,-0.1214 10.68509,-2.94424 z"
         id="path3143"
         inkscape:connector-curvature="0" />
      <path
         style="fill:#010101"
         d="m 1227.1215,1245.6576 c -2.0703,-3.3498 -2.8798,-21.9453 -1.6548,-38.0141 2.4597,-32.2654 3.1071,-47.8975 3.171,-76.567 0.081,-36.2084 -1.7959,-64.2598 -7.091,-106 -6.1724,-48.65575 -27.6195,-153.48143 -38.6689,-189.00004 -7.9917,-25.68957 -27.3595,-41.5 -50.8376,-41.5 -9.339,0 -17.8985,4.20716 -24.1345,11.86255 -7.7486,9.51224 -8.8284,12.34108 -8.8315,23.13745 0,8.21794 0.3589,10.27167 2.6773,15.21807 5.6337,12.01992 18.2389,21.55838 27.1608,20.55276 5.2039,-0.58656 12.7229,-4.24416 19.9649,-9.71193 5.9593,-4.49935 7.3149,-4.88691 8.0762,-2.3089 2.4958,8.45218 12.0109,54.93579 16.12,78.75 2.8356,16.43395 4.5412,28.42878 7.6073,53.5 2.543,20.79344 3.6266,72.97444 2.004,96.50004 -2.7589,40.0017 -6.5858,75.0803 -10.7457,98.5 -2.7811,15.6572 -11.2865,57.0598 -11.9387,58.115 -0.4026,0.6514 -2.575,0.7918 -5.7867,0.3738 -11.0073,-1.4324 -56.716,-11.7782 -70.6422,-15.9892 -22.2251,-6.7205 -30.5097,-9.4227 -43.5,-14.1889 -17.2738,-6.3377 -25.8932,-10.7313 -33.1149,-16.8798 -10.54677,-8.9793 -22.35647,-27.6896 -25.51967,-40.4309 -1.1458,-4.6153 -1.3216,-77.9629 -1.0932,-455.97226 0.1694,-280.34909 0.6283,-450.82825 1.215,-451.41495 1.4377,-1.43773 140.17957,1.22909 141.68587,2.72341 0.6452,0.64007 1.6246,5.76437 2.1765,11.38734 1.1808,12.02988 -0.4296,31.3056 -6.3724,76.27642 -0.8359,6.325 -1.9406,14.2 -2.455,17.5 -0.5144,3.3 -1.6185,10.5 -2.4537,16 -1.7882,11.7774 -4.6902,30.14093 -8.0595,51 -4.5514,28.17784 -5.7574,41.45918 -6.2446,68.77012 -0.521,29.20354 0.5795,43.962 5.3486,71.72988 4.5303,26.37777 8.5054,42.35801 12.4802,50.17194 2.6579,5.22523 12.5274,15.59754 18.4068,19.34472 11.6725,7.43932 26.1668,9.06493 36.6416,4.10957 7.0393,-3.33014 16.0467,-12.65633 19.6494,-20.34501 2.3793,-5.07763 2.709,-6.99825 2.709,-15.78122 0,-9.09099 -0.2682,-10.52922 -2.9499,-15.82194 -3.4184,-6.74654 -7.854,-10.97944 -14.9847,-14.29982 -9.6998,-4.5167 -18.7656,-2.23099 -30.5443,7.70096 -7.7912,6.5697 -7.6368,6.879 -10.024,-20.0792 -1.2412,-14.01704 -1.2399,-51.80525 0,-65.5 2.5531,-28.14743 5.7181,-43.4763 19.5116,-94.5 9.5564,-35.3505 10.8268,-40.73875 14.4997,-61.5 1.1676,-6.6 2.7566,-15.375 3.5311,-19.5 0.7744,-4.125 3.7127,-19.84731 6.5295,-34.93847 2.8168,-15.09116 5.5182,-28.48183 6.003,-29.75705 l 0.8816,-2.31857 67.272,0.25704 67.2744,0.25705 0.2508,438.5 c 0.138,241.175 -0.092,458.07504 -0.5115,482.00004 l -0.7625,43.5 -3.6965,7.7656 c -6.7496,14.1793 -17.5734,22.8203 -32.2803,25.7704 -8.4356,1.692 -57.0086,2.5681 -57.9499,1.0451 z m 150.4499,-20.1752 c -10.8185,-3.007 -18.4798,-9.1839 -23.715,-19.12 l -2.785,-5.2859 -0.2593,-467.00004 c -0.1427,-256.85 0.082,-471.05 0.5,-476 l 0.7593,-9 23.5,-0.6547 c 12.925,-0.36009 53.875,-1.17169 91,-1.80354 37.125,-0.63187 80.325,-1.56906 96,-2.08266 15.675,-0.51359 49.3831,-1.63557 74.9068,-2.49327 25.5237,-0.85771 47.0783,-1.30179 47.899,-0.98686 1.3134,0.50398 1.4221,11.02642 0.9072,87.79682 -0.6395,95.36835 -2.2363,136.90896 -5.5244,143.72421 -2.0274,4.20213 -5.4591,5.53905 -18.0089,7.01583 -15.1042,1.77734 -54.7037,2.43031 -64.0957,1.05689 -30.2548,-4.42424 -57.5079,-26.84273 -69.3808,-57.07272 -3.4126,-8.68899 -7.6244,-25.33363 -7.9446,-31.39641 l -0.2586,-4.89641 6.5,-4.44226 c 14.8738,-10.1651 19.2207,-16.75031 19.3179,-29.26492 0.07,-9.06207 -2.2268,-14.55085 -9.3532,-22.34826 -11.4784,-12.55914 -24.2093,-12.81515 -35.8059,-0.72004 -5.7,5.94498 -9.8235,13.90893 -11.3021,21.82856 -1.5316,8.20321 -0.4901,45.41945 1.5879,56.73974 4.6267,25.20475 13.6759,48.49166 25.9022,66.65579 21.8418,32.44928 52.9477,53.72645 92.4917,63.26649 15.1647,3.65852 22.9276,4.56015 50.6615,5.88419 l 25,1.19353 0.2827,11.85817 c 0.1833,7.69248 -0.1113,12.33283 -0.8387,13.20936 -0.6168,0.74316 -7.269,4.57768 -14.7827,8.52117 -70.004,36.74082 -134.0231,103.57091 -162.0755,169.19208 -7.3425,17.17585 -12.2013,33.53459 -16.2525,54.71922 -2.5491,13.33025 -3.6849,46.63097 -1.885,55.2709 2.0288,9.73902 11.2106,19.27009 19.655,20.40272 7.5308,1.01009 12.1967,-1.16959 20.3969,-9.52835 8.2906,-8.4509 13.123,-16.56117 15.5783,-26.14537 1.9959,-7.79074 1.3285,-12.83544 -2.6109,-19.73294 -3.3818,-5.92133 -6.0435,-7.62504 -14.2956,-9.15054 -3.1833,-0.58845 -6.2117,-1.33193 -6.7299,-1.65218 -4.4222,-2.73307 5.1573,-38.34654 16.1159,-59.91348 13.1503,-25.88043 33.552,-50.05649 54.3724,-64.43143 9.0838,-6.27169 30.4951,-18.50927 52.0696,-29.76022 22.5592,-11.76447 29.0792,-14.60971 34.7252,-15.1536 4.3207,-0.41624 5.0163,-0.16405 8.1269,2.94657 l 3.4017,3.40176 0.7326,75.47308 c 0.4029,41.51019 0.5416,131.72308 0.3084,200.47308 l -0.4241,125.00004 -3.3651,9 c -3.8053,10.1776 -7.223,16.3628 -13.4994,24.4307 -5.5269,7.1043 -16.4329,17.6695 -23.5062,22.7715 -7.8188,5.6398 -43.1724,29.1862 -51.5,34.3003 -37.9729,23.3199 -54.4931,32.471 -80.1181,44.3802 -28.2209,13.1156 -42.2381,18.0336 -74.3819,26.0975 -55.7305,13.9811 -61.736,15.1668 -68,13.4257 z m -451.75747,-71.3695 c -4.5626,-1.4251 -20.6162,-9.4003 -31.2425,-15.5208 -3.575,-2.059 -9.2,-5.2191 -12.5,-7.0223 -11.0591,-6.0431 -30.8952,-17.2588 -42.5,-24.0305 -6.325,-3.6908 -20.725,-12.0055 -32,-18.4771 -21.3582,-12.2592 -48.64207,-28.184 -62.68526,-36.5876 -4.50189,-2.694 -8.43147,-4.8981 -8.73239,-4.8981 -0.30092,0 -3.36755,-1.7172 -6.81474,-3.816 -6.86997,-4.1826 -44.39943,-25.6438 -60.26761,-34.4638 -26.11031,-14.51305 -38.31806,-24.63143 -43.4964,-36.05204 -3.71323,-8.18933 -3.81511,-12.80795 -0.57736,-26.17193 6.22142,-25.67925 14.64726,-47.6786 30.9739,-80.87104 14.80337,-30.09559 15.97641,-32.5977 22.32775,-47.62523 5.01152,-11.85745 18.10093,-45.68275 21.13276,-54.6107 1.09997,-3.23912 3.42042,-9.9393 5.15656,-14.8893 16.93354,-48.28003 24.44738,-84.16596 30.465,-145.5 3.28514,-33.48355 7.36808,-95.09374 8.18697,-123.53877 0.60747,-21.10118 0.53857,-22.32695 -1.61964,-28.81235 -5.89348,-17.70994 -24.56002,-48.8547 -36.52004,-60.93298 -7.72114,-7.7975 -13.02866,-9.8981 -25.47272,-10.08157 -8.8929,-0.13111 -13.20938,1.825 -16.2536,7.36567 -1.64254,2.98952 -1.87246,5.10436 -1.57639,14.5 0.29913,9.49276 0.73223,11.84549 3.16078,17.17044 4.31078,9.45203 5.65576,10.32648 18.00547,11.70643 9.99312,1.11664 10.74429,1.36374 14.13897,4.65121 6.53833,6.33183 11.05351,18.04613 13.59796,35.27896 1.6338,11.06528 1.64766,57.21975 0.0214,71.19296 -6.10221,52.43077 -18.26972,85.61062 -47.30675,129.00184 -11.43982,17.09498 -21.01902,29.50047 -22.75959,29.47466 -2.63433,-0.0391 -27.11532,-7.75676 -28.65303,-9.03296 -1.23499,-1.02493 -1.432,-32.54339 -1.432,-229.09737 0,-207.005 0.14524,-227.96467 1.58351,-228.51659 0.87093,-0.33421 19.20843,-0.0826 40.75,0.55907 21.54157,0.64169 54.46649,1.60704 73.16649,2.14523 196.3374,5.65059 229.2796,6.71185 230.4312,7.42358 0.7544,0.46624 1.0688,84.48745 1.0688,285.60156 0,270.70758 -0.087,284.94073 -1.75,284.93604 -0.9625,-0.003 -5.575,-1.395 -10.25,-3.09396 -4.675,-1.69897 -9.85,-3.56047 -11.5,-4.13667 -4.118,-1.43807 -6.3958,-3.5959 -8.1747,-7.74413 -9.7765,-22.7982 -43.5755,-111.58016 -49.1528,-129.11271 -5.1142,-16.07684 -10.62,-40.75087 -13.5908,-60.90759 -4.6401,-31.48142 -5.0085,-36.83158 -4.9926,-72.5 0.014,-31.81866 0.2062,-35.86351 2.1127,-44.5 5.1865,-23.49541 11.7443,-31.82663 21.9831,-27.92813 5.314,2.02336 12.2313,2.91049 14.8704,1.90712 3.2086,-1.21991 6.8067,-8.81521 8.9078,-18.8037 5.4679,-25.99339 -3.7933,-41.07315 -25.4801,-41.48838 -7.5563,-0.14468 -7.9709,-0.0277 -13.5739,3.83129 -10.0795,6.94198 -24.828,26.09927 -34.0528,44.23221 -7.3704,14.48784 -7.7056,16.82588 -6.4542,45.02168 4.0106,90.36468 10.4032,167.39266 17.696,213.22791 2.4378,15.32171 8.171,44.74111 11.4978,59 14.2619,61.12719 32.3356,130.16956 45.4184,173.5 17.9324,59.39254 25.9077,88.70774 30.8782,113.50004 5.7739,28.7994 13.6628,76.3193 13.7843,83.0318 0.2211,12.2083 -6.7941,16.6089 -19.9343,12.5046 z M -109.37694,1043.6317 c -1.66284,-1.78 -3.4352,-4.8832 -3.93858,-6.8958 -1.45135,-5.803 -1.94092,-207.41784 -1.24972,-514.65944 l 0.63667,-283 20.5,-0.67333 c 153.38344,-5.03792 236.11041,-7.34581 289,-8.06245 l 19.5,-0.26422 -0.24849,3.99508 c -0.55825,8.97524 -12.40705,42.24668 -24.04021,67.50492 -12.8718,27.94762 -35.45013,72.33831 -52.64295,103.5 -2.12416,3.85 -9.91604,18.025 -17.31529,31.5 -7.39925,13.475 -14.01441,25.4 -14.70035,26.5 -9.61079,15.41212 -43.10804,81.41811 -54.55496,107.5 C 20.38884,641.6211 5.46263,699.00382 9.38619,732.7459 c 1.3228,11.37593 2.41264,13.61584 8.78103,18.04734 6.12864,4.26467 13.44958,3.90961 23.83118,-1.15577 9.9922,-4.87539 14.4888,-8.57416 19.63328,-16.14973 5.77959,-8.51083 7.94036,-14.15892 7.93601,-20.74419 -0.004,-6.24852 -2.25835,-11.10926 -6.19275,-13.35327 -1.26693,-0.7226 -6.35351,-1.53882 -11.30351,-1.81382 l -9,-0.5 -0.33364,-5 c -2.21319,-33.16723 58.79868,-135.36994 113.78532,-190.60501 14.23311,-14.29742 25.76834,-23.23901 36.90054,-28.60365 9.89628,-4.76904 15.43201,-5.05842 18.51784,-0.96801 l 2.12994,2.82333 -0.31557,197.53404 c -0.20078,125.67904 -0.67177,198.4709 -1.29478,200.10954 -0.53856,1.41652 -2.95114,5.53071 -5.36128,9.14263 -7.71485,11.56175 -16.6889,17.46741 -41.10367,27.0496 -29.90774,11.73805 -43.3085,17.60872 -71.4247,31.29009 -19.74382,9.60737 -42.93166,21.95126 -62.82202,33.4429 -5.32289,3.07529 -11.25298,6.47335 -13.17798,7.55124 -4.71174,2.63832 -27.04346,16.05009 -34.5,20.71974 -17.36387,10.8739 -60.87525,37.2749 -66.66006,40.4466 -5.70345,3.1271 -7.88847,3.7383 -15.21251,4.2552 l -8.55245,0.6035 -3.02335,-3.2365 z m 667.44837,-95.00812 c -3.70507,-0.92399 -12.48267,-4.64158 -26.22678,-11.10786 -5.77413,-2.71659 -10.63988,-4.93926 -10.81278,-4.93926 -0.17291,0 -3.83474,-1.63299 -8.13741,-3.62887 -39.39104,-18.27234 -88.26935,-35.43522 -123.32303,-43.30303 -28.04501,-6.2947 -39.55354,-7.2582 -83,-6.94878 -36.77224,0.26189 -37.63471,0.22259 -44.44121,-2.02536 -5.42632,-1.79212 -8.15439,-3.45826 -12.5,-7.63422 l -5.55879,-5.34178 -0.26549,-312.10479 c -0.14602,-171.65764 0.0898,-314.22168 0.52396,-316.80898 l 0.78946,-4.70419 101.47604,0.003 c 90.3543,0.003 165.35031,1.16286 217.47603,3.36339 l 15,0.63321 0.30307,40.5 c 0.16668,22.275 -0.17111,61.44444 -0.75065,87.04319 -1.09587,48.40564 -2.67876,69.01172 -5.51944,71.8524 -1.85967,1.85967 -7.36689,0.98617 -27.53298,-4.367 -49.4403,-13.12411 -63.64358,-18.48543 -83.30462,-31.44508 -25.06253,-16.52006 -42.50463,-39.42135 -47.70808,-62.6402 -1.19474,-5.33114 -1.08135,-5.51554 4.5127,-7.33861 9.12586,-2.97407 16.39788,-7.2034 18.64927,-10.84622 6.29308,-10.18243 -1.19414,-24.40371 -16.71336,-31.74547 -12.77035,-6.04135 -29.18579,0.16628 -36.00013,13.61373 -2.20666,4.35463 -2.43431,6.0092 -2.42011,17.59002 0.0411,33.54291 13.81599,62.38199 43.6238,91.33078 30.7679,29.8812 74.59526,56.10258 137.36053,82.18114 7.975,3.31356 15.10292,6.5063 15.83982,7.09497 1.60872,1.28514 1.29146,18.94941 -0.37013,20.60833 -0.60544,0.60446 -12.56439,1.44126 -29,2.02921 -32.10746,1.14859 -37.41836,1.86463 -62.46969,8.42252 -17.18861,4.4996 -42.08701,15.60924 -56.71128,25.30451 -7.68229,5.09303 -21.07731,17.16681 -26.77911,24.13773 -14.02529,17.14703 -20.28105,33.79818 -21.20523,56.44259 -0.47573,11.65638 -0.29211,14.47507 1.19699,18.37423 2.36496,6.19255 12.64625,16.58753 19.61438,19.83127 10.57148,4.92113 24.83582,2.62632 32.15395,-5.17284 9.08456,-9.68172 3.06296,-24.12743 -13.9494,-33.46436 -4.02091,-2.20681 -7.52845,-4.36462 -7.79453,-4.79514 -0.84927,-1.37416 2.34616,-11.84375 5.58494,-18.2986 4.79998,-9.56632 9.54993,-15.44935 17.70816,-21.9324 14.48898,-11.51386 30.52136,-17.41097 50.18113,-18.45786 19.50168,-1.03848 68.65363,2.96643 80.91823,6.59323 5.46008,1.61462 10.77374,5.67119 13.46767,10.28154 l 2.49646,4.27239 0.71641,171.6931 c 0.67212,161.07921 0.60992,171.97192 -1.00609,176.2034 -0.94738,2.48067 -3.28395,5.88127 -5.19239,7.5569 -3.21504,2.82284 -3.9998,3.03908 -10.68509,2.94424 -3.96836,-0.0563 -8.5652,-0.43903 -10.2152,-0.85052 z"
         id="path3141"
         inkscape:connector-curvature="0" />
    </g>
  </g>
</svg>
